<?xml version="1.0" encoding="utf-8"?>
<!-- Generator: Adobe Illustrator 21.0.0, SVG Export Plug-In . SVG Version: 6.00 Build 0)  -->
<svg version="1.1" id="Layer_1" xmlns="http://www.w3.org/2000/svg" xmlns:xlink="http://www.w3.org/1999/xlink" x="0px" y="0px"
	 viewBox="0 0 130 26" style="enable-background:new 0 0 130 26;" xml:space="preserve">
<style type="text/css">
	.st0{fill:#ED8E5B;}
	.st1{fill:#231F20;}
	.st2{fill:#F1AA62;}
	.st3{fill:#FCC071;}
	.st4{fill:#D78153;}
	.st5{fill:#B04158;}
	.st6{fill:#AE164F;}
	.st7{fill:#90093F;}
	.st8{fill:#B0515D;}
	.st9{fill:#45347B;}
	.st10{fill:#3C235C;}
	.st11{fill:#4F3F98;}
	.st12{fill:#413073;}
	.st13{fill:#FFFFFF;}
	.st14{filter:url(#Adobe_OpacityMaskFilter);}
	.st15{mask:url(#b);fill:#FFFFFF;}
</style>
<g>
	<path class="st0" d="M18,15.5v5.1l-4.4,2.5v-5.1L18,15.5z"/>
	<path class="st1" d="M9.1,15.5L4.7,13l0-5.1l4.4,2.5L9.1,15.5z"/>
	<path class="st2" d="M0.3,15.5l4.4,2.5v5.1l4.4,2.5v-5.1l4.4,2.5v-5.1l-4.4-2.5l-8.8-5.1V15.5z"/>
	<path class="st3" d="M0.3,10.5L4.7,13l4.4,2.5l4.4-2.5v0l-4.4-2.5l0,0L4.7,7.9l0,0L0.3,10.5z"/>
	<path class="st4" d="M9.1,25.7l4.4-2.5l-4.4-2.5V25.7z"/>
	<path class="st1" d="M13.5,7.9L18,5.4l4.4,2.5L18,10.5L13.5,7.9z"/>
	<path class="st5" d="M9.1,15.5L4.7,13l0-5.1l4.4,2.5L9.1,15.5z"/>
	<path class="st6" d="M18,0.3l-4.4,2.5L9.1,0.3L4.7,2.8l4.4,2.5L4.7,7.9l4.4,2.5l4.4-2.5l8.8-5.1L18,0.3z"/>
	<path class="st7" d="M22.4,7.9L22.4,7.9l-1.6,0.9L18,10.5L13.5,13l-4.4,2.5v0v-5.1h0l4.4-2.5L18,5.4l4.4-2.5L22.4,7.9z"/>
	<path class="st8" d="M4.7,7.9l0-5.1l4.4,2.5L4.7,7.9z"/>
	<path class="st9" d="M13.5,7.9L18,5.4l4.4,2.5L18,10.5L13.5,7.9z"/>
	<path class="st10" d="M18,10.5l0,5.1v5.1l0,5.1l4.4-2.5v-5.1l4.4-2.5v-5.1L22.4,13V7.9L18,10.5z"/>
	<path class="st3" d="M18,15.5L13.5,13v0l-4.4,2.5l4.4,2.5L18,15.5z"/>
	<path class="st11" d="M13.5,13l4.4,2.5v5.1l-4.4,2.5l4.4,2.5V10.5l-4.4-2.5V13z"/>
	<path class="st12" d="M22.4,7.9l4.4,2.5L22.4,13L22.4,7.9z"/>
	<path class="st13" d="M114.9,19.3V7.9h5.9v0.6h-5.1v4.6h4.9v0.7h-4.9v4.9h5.2v0.7L114.9,19.3L114.9,19.3z M106.1,16.3l4.4-8.4h0.6
		l0.8,11.4h-0.7l-0.7-10.1l-4.1,7.9h-0.7l-4.1-7.9L101,19.3h-0.7l0.8-11.4h0.6L106.1,16.3L106.1,16.3z M98.1,19.3h-0.8l-1.2-3.1
		h-5.7l-1.2,3.1h-0.8l4.5-11.4h0.5L98.1,19.3L98.1,19.3L98.1,19.3z M90.8,15.6h5.2l-2.6-6.7L90.8,15.6L90.8,15.6z M86.1,8.9
		c-0.5-0.2-0.9-0.3-1.4-0.4c-0.5-0.1-1-0.1-1.6-0.1c-0.8,0-1.5,0.1-2.1,0.4c-0.6,0.2-1.2,0.6-1.7,1.1c-0.5,0.5-0.8,1.1-1.1,1.7
		c-0.3,0.7-0.4,1.4-0.4,2.2c0,0.8,0.1,1.5,0.4,2.2c0.2,0.6,0.6,1.2,1,1.6c0.5,0.5,1,0.8,1.7,1c0.7,0.2,1.4,0.4,2.2,0.4
		c0.2,0,0.4,0,0.6,0c0.2,0,0.5,0,0.7-0.1c0.2,0,0.5-0.1,0.7-0.1c0.2,0,0.4-0.1,0.6-0.1v-4h0.7V19c-0.5,0.2-1.1,0.3-1.7,0.4
		c-0.6,0.1-1.2,0.1-1.8,0.1c-0.9,0-1.7-0.1-2.5-0.4c-0.7-0.3-1.3-0.7-1.9-1.2c-0.5-0.5-0.9-1.1-1.2-1.8c-0.3-0.7-0.4-1.5-0.4-2.4
		c0-0.9,0.1-1.7,0.4-2.4c0.3-0.7,0.7-1.4,1.2-1.9c0.5-0.5,1.2-1,1.9-1.2c0.7-0.3,1.6-0.4,2.5-0.4c0.6,0,1.2,0.1,1.7,0.1
		c0.5,0.1,1,0.2,1.4,0.4L86.1,8.9L86.1,8.9z M69.2,17.4h-2.7l-2.2-4.6L64,19.2h-2.8l0.9-11.4h2.5l3.3,7l3.3-7h2.5l0.9,11.4h-2.8
		l-0.3-6.4L69.2,17.4L69.2,17.4z M56,17h-4.4L51,19.2h-2.9l4.2-11.4h3.1l4.2,11.4h-2.9L56,17L56,17z M52.4,14.8h2.9l-1.5-4.8
		L52.4,14.8L52.4,14.8z M48.3,7.8V10h-3.1v9.2h-2.8V10h-3.1V7.8C39.4,7.8,48.3,7.8,48.3,7.8z M34.8,19.2h2.8V7.8h-2.8L34.8,19.2
		L34.8,19.2z"/>
	<g transform="translate(122 6.46)">
		<defs>
			<filter id="Adobe_OpacityMaskFilter" filterUnits="userSpaceOnUse" x="1" y="1.3" width="6.7" height="11.8">
				<feColorMatrix  type="matrix" values="1 0 0 0 0  0 1 0 0 0  0 0 1 0 0  0 0 0 1 0"/>
			</filter>
		</defs>
		<mask maskUnits="userSpaceOnUse" x="1" y="1.3" width="6.7" height="11.8" id="b">
			<g class="st14">
				<path id="a" class="st13" d="M1,1.3h6.7v11.8H1V1.3z"/>
			</g>
		</mask>
		<path class="st15" d="M7.7,10c0,0.4-0.1,0.9-0.3,1.2c-0.2,0.4-0.4,0.7-0.7,1c-0.3,0.3-0.7,0.5-1.1,0.6c-0.5,0.2-1,0.2-1.5,0.2
			c-0.5,0-1.1-0.1-1.6-0.2c-0.5-0.1-1-0.3-1.5-0.5l0.2-0.6c0.4,0.2,0.9,0.4,1.4,0.5c0.5,0.1,1,0.2,1.5,0.2c0.9,0,1.6-0.2,2.1-0.6
			c0.5-0.4,0.8-1,0.8-1.8c0-0.4-0.1-0.7-0.2-1C6.5,8.7,6.3,8.5,6.1,8.2C5.8,8,5.5,7.8,5.2,7.6c-0.3-0.2-0.7-0.3-1-0.5
			C3.8,6.9,3.4,6.7,3,6.5C2.7,6.3,2.3,6.1,2.1,5.9C1.8,5.6,1.6,5.3,1.5,5C1.3,4.7,1.3,4.4,1.3,3.9c0-0.5,0.1-0.9,0.3-1.2
			s0.4-0.6,0.7-0.8c0.3-0.2,0.6-0.4,1-0.5c0.4-0.1,0.8-0.2,1.2-0.2c0.5,0,1,0.1,1.5,0.2c0.4,0.1,0.9,0.3,1.3,0.5L7.1,2.5
			C6.6,2.4,6.2,2.2,5.8,2.1C5.4,2,4.9,1.9,4.5,1.9c-0.7,0-1.3,0.2-1.8,0.5C2.2,2.7,2,3.2,2,3.9c0,0.3,0,0.6,0.1,0.8
			C2.2,5,2.4,5.2,2.6,5.4C2.8,5.6,3,5.7,3.3,5.9c0.3,0.2,0.6,0.4,1,0.5C4.7,6.6,5.1,6.8,5.5,7c0.4,0.2,0.7,0.5,1.1,0.7
			c0.3,0.3,0.6,0.6,0.8,1C7.6,9.1,7.7,9.5,7.7,10"/>
	</g>
</g>
</svg>
